<svg xmlns="http://www.w3.org/2000/svg" width="32" height="32" fill="none"><path fill="#007934" d="M7.23 26.046c-.808-1.034-.692-2.526.337-3.34 1.027-.811 2.329-.577 3.276.422 1.309 1.379 2.596 2.038 4.325 2.038 1.73 0 3.017-.66 4.325-2.038.947-.999 2.25-1.233 3.276-.421 1.029.813 1.145 2.305.338 3.339-1.88 2.407-4.702 3.874-7.939 3.874S9.11 28.453 7.23 26.046ZM16.285 3.449c1.299.203 1.687.264 2.62.17.905-.116 1.7-.43 2.641-1.04 1.154-.75 2.475-.673 3.284.357.81 1.031.532 2.39-.507 3.342-1.04.952-2.323 1.48-3.634 1.74-1.459.291-2.49.35-4.34.059-1.975-.311-3.185.348-3.869 1.046a3.766 3.766 0 0 0 2.688 6.404 3.766 3.766 0 0 0 2.849-6.23c1.343.041 2.35-.102 3.301-.347.49-.127 1.058-.32 1.601-.56a8.508 8.508 0 0 1 .694 3.37c0 4.676-3.781 8.468-8.445 8.468-4.663 0-8.445-3.792-8.445-8.468 0-2.156.805-4.124 2.128-5.617a8.459 8.459 0 0 1 3.904-2.495c.878-.262 2.062-.43 3.52-.2l.01.001Z"/></svg>